<mxfile host="app.diagrams.net" modified="2023-11-17T11:08:49.434Z" agent="Mozilla/5.0 (Windows NT 10.0; Win64; x64) AppleWebKit/537.36 (KHTML, like Gecko) Chrome/116.0.5845.1024 YaBrowser/23.9.1.1024 (corp) Yowser/2.5 Safari/537.36" etag="WWVi1AJPf3GRQ5aUt47a" version="22.1.2" type="github">
  <diagram name="Страница — 1" id="kmeITi0ijy-9kRvaVtel">
    <mxGraphModel dx="1386" dy="1191" grid="1" gridSize="10" guides="1" tooltips="1" connect="1" arrows="1" fold="1" page="0" pageScale="1" pageWidth="827" pageHeight="1169" math="0" shadow="0">
      <root>
        <mxCell id="0" />
        <mxCell id="1" parent="0" />
        <mxCell id="3b4hoAuBTqkIIfQ7uPY3-1" value="" style="rounded=0;whiteSpace=wrap;html=1;" parent="1" vertex="1">
          <mxGeometry x="300" y="-110" width="120" height="60" as="geometry" />
        </mxCell>
      </root>
    </mxGraphModel>
  </diagram>
</mxfile>
